/* XPM */
static char *a0c66fd148d94c49aadcf2ef0a9474fbeG5oNjgC3k94AyNt[] = {
/* columns rows colors chars-per-pixel */
"32 32 13 1 ",
"  c #9A5436",
". c #924D2F",
"X c #985233",
"o c #8E4A2C",
"O c #864326",
"+ c #814023",
"@ c #A15A3C",
"# c #383530",
"$ c #B1AE9B",
"% c #DCA05D",
"& c #5B5848",
"* c #C2BFAE",
"= c white",
/* pixels */
"   .......XooOO+ ..........XoOO+",
".........XoOOOO+ ..........XoOO+",
"++++++++++++++++++++++++++++++++",
"...XooO+@ ...........Xo+@@ .....",
"..XoOOO+@ ..........XoO+@ ......",
"...XooO+ .........XXoOO+ .......",
"++++++++++++++++++++++++++++++++",
"@@ ........XoOO+@@ .........XoO+",
"@ ........XoOOO+  .........XoOO+",
"@ .........XooO+............XoO+",
"++++++++++++++++++++++++++++++++",
"...XooO+@ .........XoOO+@  .....",
"..XoOOO+@@ .........XoO+ .......",
"...XooO+  .........XoOO+........",
"++++++++++++++++++++++++++++++++",
"@ ..........XoO+@@ .......XooOO+",
"@ .........XoOO+@#.....#.XooOOO+",
" ..........XoOO+#$#...#$#ooOOOO+",
"++++++++++++++++#%$#+#$%#+++++++",
"..XoOOO+@@ .....#$$$#$$$#@@ ....",
".XXoooO+  .....#$$$$$$$$$# .....",
"XoOOOOO+.......#$$&$$$&$$#......",
"+++++++++++++++#$$$$$$$$$#++++++",
"@@ .........XoO#$$$$$$$##..XXoO+",
"@ ....##....XoO+#***$$#...XooOO+",
"@ ...#$*#..XoO##$*****#..XoOOOO+",
"+++++#$#++++##$$*****#++++++++++",
"..XoO#$#@@@#*******$$#O+@@@ ....",
"...Xo#$$#  #*&&****$#OO+@  .....",
"....XX#$*##****&****#OO+ .......",
"+++++++#*******&**#*#+++++++++++",
"@@@ ....#*******&*#&#.......XoO+"
};
