/* XPM */
static char *b7e4640f3dfe4125f56b1f0d6a7e3de5U8qDicctgcBOCB9W[] = {
/* columns rows colors chars-per-pixel */
"32 32 11 1 ",
"  c #9A5436",
". c #924D2F",
"X c #985233",
"o c #8E4A2C",
"O c #864326",
"+ c #814023",
"@ c #8C5B3E",
"# c #C68556",
"$ c #A15A3C",
"% c #4F342F",
"& c white",
/* pixels */
"   .......XooOO+ ..........XoOO+",
".........XoOOOO+ ..........XoOO+",
"++++++++++++++++++++++++++++++++",
"...Xoo@@@@@@@@@@@@@@@@@@@@ .....",
"..XoOO@##################@......",
"...Xoo@#@@@@@@@@@@@@@@@@#@......",
"++++++@#@########@@####@#@++++++",
"$$ ...@#@######@@######@#@..XoO+",
"$ ....@#@####@@########@#@.XoOO+",
"$ ....@#@##@@########@@@#@..XoO+",
"++++++@#@@@########@@##@#@++++++",
"...Xoo@#@########@@####@#@ .....",
"..XoOO@#@######@@######@#@......",
"...Xoo@#@####@@########@#@......",
"++++++@#@##@@##########@#%++++++",
"$ ....%#@@@@@@@@@@@@@@@@#%XooOO+",
"$ ....%##################%ooOOO+",
" .....%%%%%%%%%%%%%%%%%%%%oOOOO+",
"++++++%@@@@@@@@@@@@@@@@@@%++++++",
"..XoOO%@%%%%%%%%%%%%%%%%@%$ ....",
".XXooo%@%@@%%@@@@@@@@@@%@% .....",
"XoOOOO%@%@@@@%%%%@@@@@@%@%......",
"++++++%@%%%%@@@@@%%%%@@%@%++++++",
"$$ ...%@%@@@%%%%@@@@@%%%@%.XXoO+",
"$ ....%@%@@@@@@@%%%@@@@%@%XooOO+",
"$ ....%@%%%%%%%%%%%%%%%%@%oOOOO+",
"++++++%@@@@@@@@@@@@@@@@@@%++++++",
"..XoOO%%%%%%%%%%%%%%%%%%%%$ ....",
"...XooO+$  ........XoOO+$  .....",
"....XXo+ .........XoOOO+ .......",
"++++++++++++++++++++++++++++++++",
"$$$ .......XXoO+$ ..........XoO+"
};
