/* XPM */
static char *LBorder[] = {
/* columns rows colors chars-per-pixel */
"32 32 52 1 ",
"  c #060301",
". c #0E0702",
"X c #140B03",
"o c #180D04",
"O c #1A0E04",
"+ c #3B1F13",
"@ c #3D2115",
"# c #422417",
"$ c #462416",
"% c #4F2816",
"& c #462618",
"* c #4A291B",
"= c #4B291B",
"- c #532B19",
"; c #5B2D19",
": c #592D1A",
"> c #5B2F1B",
", c #57301E",
"< c #5E301B",
"1 c #60311D",
"2 c #60321D",
"3 c #6F381F",
"4 c #693721",
"5 c #6E3B25",
"6 c #6E3C26",
"7 c #733920",
"8 c #713A22",
"9 c #773D24",
"0 c #783D23",
"q c #7D4127",
"w c #774129",
"e c #7E442A",
"r c #972C2C",
"t c #A22F2F",
"y c #A83535",
"u c #B23C3C",
"i c #814023",
"p c #804227",
"a c #864326",
"s c #8E4A2C",
"d c #924D2F",
"f c #854A30",
"g c #874A30",
"h c #985233",
"j c #9A5436",
"k c #9D5636",
"l c #A15A3C",
"z c #B15F3C",
"x c #E39C21",
"c c #45789D",
"v c #5084AA",
"b c #5E92B8",
/* pixels */
"                  .XooOOOOkew6ge",
"                  .XooOOOOkew6ge",
"                  .XooOOooke96g0",
"                  .XooOOOokge6ge",
"                 .XoOOOOOOkgwwg0",
"                 .XXoOOOOOkgw6ge",
"                  .XooOOOOkew6gw",
"                   .ooOOOOkpw6ge",
"                    .XoOookew6gw",
"                    .XoOooke66s9",
"                   .Xoooooke65g9",
"                    .XooOOje55g9",
"                    .oOOOOkpw6g9",
"                    .ooOOOkp95g9",
"                   .XoOOOOkew6d0",
"                  .XooOOOOkew8ge",
"                   .XooOOOkpwwg0",
"                   .XXOOOOkpw6ge",
"                    XXoOookgw6gw",
"                    .XoOookgw6ge",
"                    .XXoOOkg95ge",
"                    .XoOOOkgw5g9",
"                   .XoOOookgw6g9",
"                  .XoOOOookgw6g0",
"                  .XoOOOOOkpw8ge",
"                  .XoOOOOOkpw6ge",
"                   .XoOOOokew6g0",
"                    .XoOOokew8ge",
"                    .XoOOOke66gp",
"                   .XoOOOOke66g0",
"                  .XoOOOOOkp66ge",
"                   .XoOOOOkpw6ge"
};
