/* XPM */
static char *_63e89302db54d00c65d4350e0a627fdfAVQ6ZcAYs1HCIlx[] = {
/* columns rows colors chars-per-pixel */
"32 32 11 1 ",
"  c #9A5436",
". c #924D2F",
"X c #985233",
"o c #8E4A2C",
"O c #864326",
"+ c #814023",
"@ c #A15A3C",
"# c #ECF0F1",
"$ c #5B6986",
"% c #8B9BB5",
"& c white",
/* pixels */
"   .......XooOO+ ..........XoOO+",
".........XoOOOO+ ..........XoOO+",
"++++++++++++++++++++++++++++++++",
"...XooO+@ ...........Xo+@@ .....",
"..XoOOO+@ ..........XoO+@ ......",
"...XooO+ .....########O+ .......",
"++++++++++++############++++++++",
"@@ ........#####$$$$#####...XoO+",
"@ ........####$$$$$$$$####.XoOO+",
"@ ........####$$$$$$$$####..XoO+",
"++++++++++%#####$$$$######++++++",
"...XooO+@ %%############## .....",
"..XoOOO+@@%%##############......",
"...XooO+###%%%%%%#########......",
"+++++++#####%%%###########++++++",
"@ .....###################XooOO+",
"@ .....###################ooOOO+",
" ......###################oOOOO+",
"+++++++###################++++++",
"..XoOOO###################@ ....",
".XXoooO################### .....",
"XoOOOOO###################......",
"+++++++###################++++++",
"@@ ....##################..XXoO+",
"@ .....#################..XooOO+",
"@ .....###############...XoOOOO+",
"+++++++#++#########+++++++++++++",
"..XoOOO+@@@####....XoOO+@@@ ....",
"...XooO+@  ........XoOO+@  .....",
"....XXo+ .........XoOOO+ .......",
"++++++++++++++++++++++++++++++++",
"@@@ .......XXoO+@ ..........XoO+"
};
