/* XPM */
static char *_ebb56fe20944564f8f17e753a22fe9fE6yK913uwqcdkydW[] = {
/* columns rows colors chars-per-pixel */
"32 32 13 1 ",
"  c #9A5436",
". c #924D2F",
"X c #985233",
"o c #8E4A2C",
"O c #864326",
"+ c #814023",
"@ c #A15A3C",
"# c #2F2F2E",
"$ c #B97F56",
"% c #7C4E2E",
"& c #99643E",
"* c #54443B",
"= c white",
/* pixels */
"   .......XooOO+ ..........XoOO+",
".........XoOOOO+ ..........XoOO+",
"++++++++++++++++++++++++++++++++",
"...XooO+@ ...........Xo+@@ .....",
"..XoOOO+@ ..........XoO+@ ......",
"...XooO+ .........XXoOO+ .......",
"++++++++++++++++++++++++++++++++",
"@@ ........XoOO+@@ .........XoO+",
"@ ........XoOOO+  .........XoOO+",
"@ .........XooO+............XoO+",
"++++++++++++++++++++++++++++++++",
"...XooO+@ .........XoOO+@  .....",
"..XoOOO+@@ .........XoO+ .......",
"...XooO+  .........XoOO+........",
"+++++++++###+++++++++###++++++++",
"@ ......#$$$#oO+@@ .#$$$#.XooOO+",
"@ ......#%&&#OO+@ ..#%&&#XooOOO+",
" .......#%&&#########%&&#ooOOOO+",
"++++++++#%&&$$$$$$$$$$&&#+++++++",
"..XoOOO+#%&&&&&&&&&&&&&&#@@ ....",
".XXoooO+#%&&#########%&&#@ .....",
"XoOOOOO+#%&&#########%&&# ......",
"++++++**#%&&$$$$$$$$$$&&#**+++++",
"@@ ..***#%&&&&&&&&&&&&&&#***XoO+",
"@ ..****#%&&#########%&&#****OO+",
"@ ..**###%%%#########%%%###**OO+",
"+++++#######################++++",
"..XoOO##################### ....",
"...XooO+#################  .....",
"....XXo+ ..###########O+ .......",
"++++++++++++++++++++++++++++++++",
"@@@ .......XXoO+@ ..........XoO+"
};
