/* XPM */
static char *a62fe069c4ed441ce4c62e8217f08005YEeJJSj7bF6PA127[] = {
/* columns rows colors chars-per-pixel */
"32 32 25 1 ",
"  c #9A5436",
". c #924D2F",
"X c #985233",
"o c #8E4A2C",
"O c #864326",
"+ c #814023",
"@ c #A72952",
"# c #A15A3C",
"$ c #BF2651",
"% c #9B1F42",
"& c #E4EFE5",
"* c #DFEDED",
"= c #3D3957",
"- c #FAFAC3",
"; c #E6CF8A",
": c #B5C0C0",
"> c #C6DBDE",
", c #728794",
"< c #CFE0D9",
"1 c #5D6E78",
"2 c #A0B1B4",
"3 c #E6D1B8",
"4 c #BAA995",
"5 c #322F47",
"6 c white",
/* pixels */
"   .......XooOO+ ..........XoOO+",
".........XoOOOO+ ..........XoOO+",
"++++++++++++++@@++++++++++++++++",
"...XooO+# ....@@.....Xo+## .....",
"..XoOOO+# ...@@@..$$XoO+# ......",
"...XooO+ ..%%@@@.$$$oOO+ .......",
"+++++++++++%%@@@$$$$++++++++++++",
"## ........%%&&&$$$$........XoO+",
"# ........X&&&&&&&***......XoOO+",
"# ........&&&&&&&*=*=*......XoO+",
"++++++++++&&&&&&&*****++++++++++",
"...XooO+#&&&&&&&***-;*:+#  .....",
"..XoOOO+#&&&&&********:+ .......",
"...XooO+ &&&******===*:+........",
"+++++++++********=====:+++++++++",
"# .......*******==;=;=:...XooOO+",
"# ........******======:..XooOOO+",
" .........*******====:.XXooOOOO+",
"+++++++++++**::::::::+++++++++++",
"..XoOOO+## ..>>>>,>XXXX+### ....",
".XXoooO+  ..<>>>,,1>ooo+## .....",
"XoOOOOO+....<>>>,,1>++++  ......",
"+++++++++++<>>>>,,11>+++++++++++",
"## ........>>>>,,111>......XXoO+",
"# .........>>>>,,111>.....XooOO+",
"# ........<>>>>,,111>....XoOOOO+",
"++++++++++>>>>,,1111>+++++++++++",
"..XoOOO+##>>>>,,1111>OO+### ....",
"...XooO+# >>>,,,1112oOO+#  .....",
"....XXo+ ..>>322242oOOO+ .......",
"+++++++++++++$+++%++++++++++++++",
"### .......XX==+#55.........XoO+"
};
