/* XPM */
static char *_0390f9f0d844106e36f03beda6d7241U7bsHujozUb5R5fv[] = {
/* columns rows colors chars-per-pixel */
"32 32 26 1 ",
"  c #9A5436",
". c #924D2F",
"X c #985233",
"o c #8E4A2C",
"O c #864326",
"+ c #814023",
"@ c #A72952",
"# c #A15A3C",
"$ c #BF2651",
"% c #9B1F42",
"& c #E4EFE5",
"* c #DFEDED",
"= c #3D3957",
"- c #FAFAC3",
"; c #E6CF8A",
": c #B5C0C0",
"> c #8E9797",
", c #CFE0D9",
"< c #C6DBDE",
"1 c #728794",
"2 c #5D6E78",
"3 c #A0B1B4",
"4 c #E6D1B8",
"5 c #BAA995",
"6 c #322F47",
"7 c white",
/* pixels */
"   .......XooOO+ ..........XoOO+",
".........XoOO@O+ ..........XoOO+",
"++++++++++++@@++++++++++++++++++",
"...XooO+# ..@@@.$$...Xo+## .....",
"..XoOOO+# %%@@@$$$..XoO+# ......",
"...XooO+ .%%@@@$$$$XoOO+ .......",
"++++++++++%%&&&$$$$+++++++++++++",
"## .......&&&&&&&***........XoO+",
"# .......&&&&&&&*=*=*......XoOO+",
"# .......&&&&&&&*****.......XoO+",
"++++++++&&&&&&&***-;*:++++++++++",
"...XooO+&&&&&********:O+#  .....",
"..XoOOO+&&&******===*:O+ .......",
"...XooO+********=====:O+........",
"++++++++*******==;=;=:++++++++++",
"# .......******======:....XooOO+",
"# .......*******====:....XooOOO+",
" .........****::::::...XXooOOOO+",
"++++++++++++::>>>>++++++++++++++",
"..XoOOO+## .,<<<1<XXXXX+### ....",
".XXoooO+  .,<<<112<oooo+## .....",
"XoOOOOO+...,<<<1122<++++  ......",
"+++++++++++<<<11122<++++++++++++",
"## .......,<<<11122<.......XXoO+",
"# ........<<<<111222<.....XooOO+",
"# ........<<<<112222<....XoOOOO+",
"++++++++++<<<1112222<+++++++++++",
"..XoOOO+##<<<1112223<OO+### ....",
"...XooO+# <<<1133233oOO+#  .....",
"....XXo+ ..<343..5XoOOO+ .......",
"+++++++++++++$+++%++++++++++++++",
"### .......XX==+#66.........XoO+"
};
