/* XPM */
static char *_fbd72c544564b81a2f38b822130281bXp9OBZIMx9GG25ec[] = {
/* columns rows colors chars-per-pixel */
"32 32 25 1 ",
"  c #9A5436",
". c #924D2F",
"X c #985233",
"o c #8E4A2C",
"O c #864326",
"+ c #814023",
"@ c #A72952",
"# c #A15A3C",
"$ c #BF2651",
"% c #9B1F42",
"& c #E4EFE5",
"* c #DFEDED",
"= c #3D3957",
"- c #FAFAC3",
"; c #E6CF8A",
": c #B5C0C0",
"> c #C6DBDE",
", c #728794",
"< c #5D6E78",
"1 c #CFE0D9",
"2 c #A0B1B4",
"3 c #E6D1B8",
"4 c #BAA995",
"5 c #322F47",
"6 c white",
/* pixels */
"   .......XooOO+ ..........XoOO+",
".........XoOOOO+ ..........XoOO+",
"++++++++++++++@+++++++++++++++++",
"...XooO+# ...@@......Xo+## .....",
"..XoOOO+# ...@@..$$.XoO+# ......",
"...XooO+ ..%@@@.$$$XoOO+ .......",
"++++++++++%%@@@$$$$+++++++++++++",
"## .......%%&&&$$$$.........XoO+",
"# ........&&&&&&&***.......XoOO+",
"# .......&&&&&&&*=*=*.......XoO+",
"+++++++++&&&&&&&*****+++++++++++",
"...XooO+&&&&&&&***-;*:O+#  .....",
"..XoOOO+&&&&&********:O+ .......",
"...XooO+&&&******===*:O+........",
"++++++++********=====:++++++++++",
"# ......*******==;=;=:....XooOO+",
"# .......******======:...XooOOO+",
" ........*******====:..XXooOOOO+",
"++++++++++**::::::::++++++++++++",
"..XoOOO+## ..>>>,>XXXXX+### ....",
".XXoooO+  ..>>>>,<>oooo+## .....",
"XoOOOOO+....>>>>,<>+++++  ......",
"+++++++++++1>>>,,<<>++++++++++++",
"## ........1>>>,,<<>.......XXoO+",
"# .........1>>,,,<<>......XooOO+",
"# ........1>>>,,<<<<>....XoOOOO+",
"++++++++++>>>,,,<<<<>+++++++++++",
"..XoOOO+##>>>,,,<<<2>OO+### ....",
"...XooO+# >>>,,22<22oOO+#  .....",
"....XXo+ ..>2322.4XoOOO+ .......",
"+++++++++++++$+++%++++++++++++++",
"### .......XX==+#55.........XoO+"
};
