/* XPM */
static char *_afca55cf5f6474b856c5763d566322enb9pCrM9oapJqg62[] = {
/* columns rows colors chars-per-pixel */
"32 32 26 1 ",
"  c #9A5436",
". c #924D2F",
"X c #985233",
"o c #8E4A2C",
"O c #864326",
"+ c #814023",
"@ c #A72952",
"# c #A15A3C",
"$ c #BF2651",
"% c #9B1F42",
"& c #E4EFE5",
"* c #DFEDED",
"= c #3D3957",
"- c #FAFAC3",
"; c #E6CF8A",
": c #B5C0C0",
"> c #8E9797",
", c #C6DBDE",
"< c #728794",
"1 c #CFE0D9",
"2 c #5D6E78",
"3 c #A0B1B4",
"4 c #E6D1B8",
"5 c #BAA995",
"6 c #322F47",
"7 c white",
/* pixels */
"   .......XooOO+ ..........XoOO+",
".........Xo@@OO+ ..........XoOO+",
"+++++++++++@@+++++++++++++++++++",
"...XooO+# .@@@.$$....Xo+## .....",
"..XoOOO+#%.@@@$$$...XoO+# ......",
"...XooO+ %%@@@$$$$XXoOO+ .......",
"+++++++++%%&&&$$$$++++++++++++++",
"## ......&&&&&&&***.........XoO+",
"# ......&&&&&&&*=*=*.......XoOO+",
"# ......&&&&&&&*****........XoO+",
"+++++++&&&&&&&***-;*:+++++++++++",
"...XooO&&&&&********:OO+#  .....",
"..XoOOO&&&******===*:oO+ .......",
"...XooO********=====:OO+........",
"+++++++*******==;=;=:+++++++++++",
"# ......******======:.....XooOO+",
"# ......*******====:.....XooOOO+",
" ........****::::::....XXooOOOO+",
"+++++++++++:::>>>+++++++++++++++",
"..XoOOO+## ,,,,,<,XXXXX+### ....",
".XXoooO+  .,,,,<<,ooooo+## .....",
"XoOOOOO+..1,,,,<<2,+++++  ......",
"++++++++++1,,,<<<22,++++++++++++",
"## .......1,,,<<<22,.......XXoO+",
"# ........,,,,<<<222,.....XooOO+",
"# ........,,,,<<2222,....XoOOOO+",
"++++++++++,,,<<<2222,+++++++++++",
"..XoOOO+##,,,<<<2223,OO+### ....",
"...XooO+# ,,,<<33233oOO+#  .....",
"....XXo+ ..,343..5XoOOO+ .......",
"+++++++++++++$+++%++++++++++++++",
"### .......XX==+#66.........XoO+"
};
