/* XPM */
static char *_9e001f0a6174fcc89767c11961c6fbdV8ySDIhaOIiaJlSv[] = {
/* columns rows colors chars-per-pixel */
"32 32 27 1 ",
"  c #9A5436",
". c #924D2F",
"X c #985233",
"o c #8E4A2C",
"O c #864326",
"+ c #814023",
"@ c #A15A3C",
"# c #A72952",
"$ c #9B1F42",
"% c #BF2651",
"& c #E4EFE5",
"* c #DFEDED",
"= c #3D3957",
"- c #B5C0C0",
"; c #FAFAC3",
": c #E6CF8A",
"> c #7E8B8E",
", c #5A6A75",
"< c #C6DBDE",
"1 c #728794",
"2 c #5D6E78",
"3 c #CFE0D9",
"4 c #A0B1B4",
"5 c #E6D1B8",
"6 c #BAA995",
"7 c #322F47",
"8 c white",
/* pixels */
"   .......XooOO+ ..........XoOO+",
".........XoOOOO+ ..........XoOO+",
"++++++++++++++++++++++++++++++++",
"...XooO+@ ...........Xo+@@ .....",
"..XoOOO+@ ......#...XoO+@ ......",
"...XooO+ ....$.###XXoOO+ .......",
"++++++++++++$$###++%%+++++++++++",
"@@ ........$$$###@%%%%......XoO+",
"@ ........X$$&### %%%%.....XoOO+",
"@ .........&&&&&#%%%%.......XoO+",
"++++++++++&&&&&&&****+++++++++++",
"...XooO+@ &&&&&&&*=*=*O+@  .....",
"..XoOOO+@&&&&&&&******-+ .......",
"...XooO+ &&&&&*****;:*-+........",
"+++++++++&&&**********-+++++++++",
"@ .......*********===*-...XooOO+",
"@ .......********=====-..XooOOO+",
" .........******==:=:=-XXooOOOO+",
"+++++++++++*****=====-++++++++++",
"..XoOOO+@@ ..>>>>,>XXXX+@@@ ....",
".XXoooO+  ...<<<<12<ooo+@@ .....",
"XoOOOOO+....3<<<<12<++++  ......",
"++++++++++++3<<<112<++++++++++++",
"@@ ........3<<<<1222<......XXoO+",
"@ .........<<<<<1222<.....XooOO+",
"@ .........<<<<11222<....XoOOOO+",
"++++++++++<<<<<12222<+++++++++++",
"..XoOOO+@@<<<<112222<OO+@@@ ....",
"...XooO+@ <<<<112224oOO+@  .....",
"....XXo+ .<<<544464oOOO+ .......",
"+++++++++++++%+++$++++++++++++++",
"@@@ .......XX==+@77.........XoO+"
};
